<svg width="250" height="250" viewBox="0 0 250 250" fill="none" xmlns="http://www.w3.org/2000/svg">
<path d="M34.5895 44.9826C34.5895 44.9826 159.981 26.6414 196.692 60.338C233.404 94.0345 215.763 205.787 215.763 205.787C215.763 205.787 91.3255 222.422 53.6604 189.579C15.9954 156.736 34.5895 44.9826 34.5895 44.9826Z" fill="#28B67E"/>
<rect x="60" y="110" width="130" height="30" fill="#1D4C4F"/>
<path d="M60 150H190C190 150 194.5 180 170 180C145.5 180 60 180 60 180V150Z" fill="#1D4C4F"/>
<path d="M60.5 100.029C60.5 100.029 59.001 70.0501 81.0005 70.0501C103 70.05 189.902 70.0483 189.902 70.0483L189.9 100.02L60.5 100.029Z" fill="#1D4C4F"/>
<circle cx="90" cy="85" r="10" fill="#28B67E"/>
<circle cx="90" cy="126" r="10" fill="#28B67E"/>
<circle cx="90" cy="165" r="10" fill="#28B67E"/>
</svg>
