<svg width="670" height="250" viewBox="0 0 670 250" fill="none" xmlns="http://www.w3.org/2000/svg">
<path d="M74.0726 35.5688C74.0726 35.5688 212.663 15.0698 253.239 52.7307C293.815 90.3915 274.317 215.292 274.317 215.292C274.317 215.292 136.781 233.884 95.151 197.177C53.5212 160.469 74.0726 35.5688 74.0726 35.5688Z" fill="#28B67E"/>
<rect x="109" y="110" width="130" height="30" fill="#1D4C4F"/>
<path d="M109 150H239C239 150 243.5 180 219 180C194.5 180 109 180 109 180V150Z" fill="#1D4C4F"/>
<path d="M109.5 100.029C109.5 100.029 108.001 70.0501 130 70.0501C152 70.05 238.902 70.0483 238.902 70.0483L238.9 100.02L109.5 100.029Z" fill="#1D4C4F"/>
<circle cx="139" cy="85" r="10" fill="#28B67E"/>
<circle cx="139" cy="126" r="10" fill="#28B67E"/>
<circle cx="139" cy="165" r="10" fill="#28B67E"/>
<mask id="path-8-outside-1_68_2" maskUnits="userSpaceOnUse" x="334" y="54" width="278" height="131" fill="black">
<rect fill="white" x="334" y="54" width="278" height="131"/>
<path d="M336.528 106.11H348.408V75.78H379.908V106.11H395.568V132.12H379.908V146.52C379.908 149.1 380.238 151.32 380.898 153.18C381.618 154.98 383.118 155.88 385.398 155.88C386.778 155.88 388.008 155.58 389.088 154.98C390.168 154.32 390.828 153.87 391.068 153.63L401.688 176.13C401.208 176.49 399.738 177.18 397.278 178.2C394.878 179.16 391.818 180.06 388.098 180.9C384.438 181.74 380.358 182.16 375.858 182.16C367.878 182.16 361.308 179.97 356.148 175.59C350.988 171.15 348.408 164.34 348.408 155.16V132.12H336.528V106.11ZM440.474 182.16C432.194 182.16 424.844 180.51 418.424 177.21C412.004 173.91 406.964 169.35 403.304 163.53C399.644 157.65 397.814 150.9 397.814 143.28C397.814 135.66 399.644 128.91 403.304 123.03C406.964 117.09 412.004 112.44 418.424 109.08C424.844 105.66 432.194 103.95 440.474 103.95C448.694 103.95 455.954 105.66 462.254 109.08C468.614 112.44 473.564 117.09 477.104 123.03C480.704 128.91 482.504 135.66 482.504 143.28C482.504 150.9 480.704 157.65 477.104 163.53C473.564 169.35 468.614 173.91 462.254 177.21C455.954 180.51 448.694 182.16 440.474 182.16ZM440.474 156.15C442.934 156.15 445.064 155.64 446.864 154.62C448.664 153.54 450.044 152.01 451.004 150.03C451.964 148.05 452.444 145.74 452.444 143.1C452.444 140.52 451.964 138.24 451.004 136.26C450.044 134.28 448.664 132.75 446.864 131.67C445.064 130.53 442.934 129.96 440.474 129.96C437.954 129.96 435.794 130.53 433.994 131.67C432.194 132.75 430.784 134.28 429.764 136.26C428.744 138.24 428.234 140.52 428.234 143.1C428.234 145.74 428.744 148.05 429.764 150.03C430.784 152.01 432.194 153.54 433.994 154.62C435.794 155.64 437.954 156.15 440.474 156.15ZM539.017 106.11H574.567L540.907 141.39L578.527 180H542.077L515.797 151.47V180H483.937V56.16H515.797V130.41L539.017 106.11ZM576.087 180V106.11H607.857V180H576.087ZM592.377 94.77C587.517 94.77 583.377 93.06 579.957 89.64C576.597 86.22 574.917 82.14 574.917 77.4C574.917 72.66 576.597 68.55 579.957 65.07C583.377 61.59 587.517 59.85 592.377 59.85C595.557 59.85 598.467 60.66 601.107 62.28C603.747 63.84 605.877 65.94 607.497 68.58C609.117 71.22 609.927 74.16 609.927 77.4C609.927 82.14 608.187 86.22 604.707 89.64C601.287 93.06 597.177 94.77 592.377 94.77Z"/>
</mask>
<path d="M336.528 106.11H348.408V75.78H379.908V106.11H395.568V132.12H379.908V146.52C379.908 149.1 380.238 151.32 380.898 153.18C381.618 154.98 383.118 155.88 385.398 155.88C386.778 155.88 388.008 155.58 389.088 154.98C390.168 154.32 390.828 153.87 391.068 153.63L401.688 176.13C401.208 176.49 399.738 177.18 397.278 178.2C394.878 179.16 391.818 180.06 388.098 180.9C384.438 181.74 380.358 182.16 375.858 182.16C367.878 182.16 361.308 179.97 356.148 175.59C350.988 171.15 348.408 164.34 348.408 155.16V132.12H336.528V106.11ZM440.474 182.16C432.194 182.16 424.844 180.51 418.424 177.21C412.004 173.91 406.964 169.35 403.304 163.53C399.644 157.65 397.814 150.9 397.814 143.28C397.814 135.66 399.644 128.91 403.304 123.03C406.964 117.09 412.004 112.44 418.424 109.08C424.844 105.66 432.194 103.95 440.474 103.95C448.694 103.95 455.954 105.66 462.254 109.08C468.614 112.44 473.564 117.09 477.104 123.03C480.704 128.91 482.504 135.66 482.504 143.28C482.504 150.9 480.704 157.65 477.104 163.53C473.564 169.35 468.614 173.91 462.254 177.21C455.954 180.51 448.694 182.16 440.474 182.16ZM440.474 156.15C442.934 156.15 445.064 155.64 446.864 154.62C448.664 153.54 450.044 152.01 451.004 150.03C451.964 148.05 452.444 145.74 452.444 143.1C452.444 140.52 451.964 138.24 451.004 136.26C450.044 134.28 448.664 132.75 446.864 131.67C445.064 130.53 442.934 129.96 440.474 129.96C437.954 129.96 435.794 130.53 433.994 131.67C432.194 132.75 430.784 134.28 429.764 136.26C428.744 138.24 428.234 140.52 428.234 143.1C428.234 145.74 428.744 148.05 429.764 150.03C430.784 152.01 432.194 153.54 433.994 154.62C435.794 155.64 437.954 156.15 440.474 156.15ZM539.017 106.11H574.567L540.907 141.39L578.527 180H542.077L515.797 151.47V180H483.937V56.16H515.797V130.41L539.017 106.11ZM576.087 180V106.11H607.857V180H576.087ZM592.377 94.77C587.517 94.77 583.377 93.06 579.957 89.64C576.597 86.22 574.917 82.14 574.917 77.4C574.917 72.66 576.597 68.55 579.957 65.07C583.377 61.59 587.517 59.85 592.377 59.85C595.557 59.85 598.467 60.66 601.107 62.28C603.747 63.84 605.877 65.94 607.497 68.58C609.117 71.22 609.927 74.16 609.927 77.4C609.927 82.14 608.187 86.22 604.707 89.64C601.287 93.06 597.177 94.77 592.377 94.77Z" fill="#1D4C4F"/>
<path d="M336.528 106.11V104.11H334.528V106.11H336.528ZM348.408 106.11V108.11H350.408V106.11H348.408ZM348.408 75.78V73.78H346.408V75.78H348.408ZM379.908 75.78H381.908V73.78H379.908V75.78ZM379.908 106.11H377.908V108.11H379.908V106.11ZM395.568 106.11H397.568V104.11H395.568V106.11ZM395.568 132.12V134.12H397.568V132.12H395.568ZM379.908 132.12V130.12H377.908V132.12H379.908ZM380.898 153.18L379.013 153.849L379.027 153.886L379.041 153.923L380.898 153.18ZM389.088 154.98L390.06 156.728L390.096 156.708L390.131 156.687L389.088 154.98ZM391.068 153.63L392.877 152.776L391.664 150.206L389.654 152.216L391.068 153.63ZM401.688 176.13L402.888 177.73L404.193 176.751L403.497 175.276L401.688 176.13ZM397.278 178.2L398.021 180.057L398.033 180.052L398.044 180.047L397.278 178.2ZM388.098 180.9L387.658 178.949L387.651 178.951L388.098 180.9ZM356.148 175.59L354.844 177.106L354.854 177.115L356.148 175.59ZM348.408 132.12H350.408V130.12H348.408V132.12ZM336.528 132.12H334.528V134.12H336.528V132.12ZM336.528 106.11V108.11H348.408V106.11V104.11H336.528V106.11ZM348.408 106.11H350.408V75.78H348.408H346.408V106.11H348.408ZM348.408 75.78V77.78H379.908V75.78V73.78H348.408V75.78ZM379.908 75.78H377.908V106.11H379.908H381.908V75.78H379.908ZM379.908 106.11V108.11H395.568V106.11V104.11H379.908V106.11ZM395.568 106.11H393.568V132.12H395.568H397.568V106.11H395.568ZM395.568 132.12V130.12H379.908V132.12V134.12H395.568V132.12ZM379.908 132.12H377.908V146.52H379.908H381.908V132.12H379.908ZM379.908 146.52H377.908C377.908 149.262 378.258 151.72 379.013 153.849L380.898 153.18L382.783 152.511C382.219 150.92 381.908 148.938 381.908 146.52H379.908ZM380.898 153.18L379.041 153.923C379.545 155.182 380.369 156.221 381.534 156.92C382.676 157.605 384.003 157.88 385.398 157.88V155.88V153.88C384.513 153.88 383.951 153.705 383.592 153.49C383.258 153.289 382.971 152.978 382.755 152.437L380.898 153.18ZM385.398 155.88V157.88C387.078 157.88 388.649 157.512 390.06 156.728L389.088 154.98L388.117 153.232C387.368 153.648 386.479 153.88 385.398 153.88V155.88ZM389.088 154.98L390.131 156.687C390.685 156.348 391.151 156.051 391.52 155.8C391.852 155.573 392.217 155.31 392.482 155.044L391.068 153.63L389.654 152.216C389.679 152.19 389.594 152.272 389.267 152.495C388.975 152.694 388.571 152.952 388.045 153.273L389.088 154.98ZM391.068 153.63L389.26 154.484L399.88 176.984L401.688 176.13L403.497 175.276L392.877 152.776L391.068 153.63ZM401.688 176.13L400.488 174.53C400.489 174.53 400.411 174.585 400.194 174.701C399.994 174.809 399.724 174.944 399.376 175.107C398.68 175.434 397.729 175.848 396.512 176.353L397.278 178.2L398.044 180.047C399.287 179.532 400.301 179.091 401.076 178.728C401.793 178.391 402.461 178.05 402.888 177.73L401.688 176.13ZM397.278 178.2L396.536 176.343C394.268 177.25 391.318 178.123 387.658 178.949L388.098 180.9L388.539 182.851C392.318 181.997 395.489 181.07 398.021 180.057L397.278 178.2ZM388.098 180.9L387.651 178.951C384.163 179.751 380.236 180.16 375.858 180.16V182.16V184.16C380.48 184.16 384.713 183.729 388.546 182.849L388.098 180.9ZM375.858 182.16V180.16C368.263 180.16 362.178 178.085 357.443 174.065L356.148 175.59L354.854 177.115C360.438 181.855 367.493 184.16 375.858 184.16V182.16ZM356.148 175.59L357.453 174.074C352.874 170.134 350.408 163.972 350.408 155.16H348.408H346.408C346.408 164.708 349.102 172.166 354.844 177.106L356.148 175.59ZM348.408 155.16H350.408V132.12H348.408H346.408V155.16H348.408ZM348.408 132.12V130.12H336.528V132.12V134.12H348.408V132.12ZM336.528 132.12H338.528V106.11H336.528H334.528V132.12H336.528ZM418.424 177.21L417.51 178.989V178.989L418.424 177.21ZM403.304 163.53L401.606 164.587L401.611 164.595L403.304 163.53ZM403.304 123.03L405.002 124.087L405.007 124.079L403.304 123.03ZM418.424 109.08L419.351 110.852L419.358 110.849L419.364 110.845L418.424 109.08ZM462.254 109.08L461.3 110.838L461.31 110.843L461.32 110.848L462.254 109.08ZM477.104 123.03L475.386 124.054L475.392 124.064L475.398 124.074L477.104 123.03ZM477.104 163.53L475.398 162.486L475.395 162.491L477.104 163.53ZM462.254 177.21L461.333 175.435L461.326 175.438L462.254 177.21ZM446.864 154.62L447.85 156.36L447.872 156.348L447.893 156.335L446.864 154.62ZM451.004 150.03L452.804 150.903V150.903L451.004 150.03ZM451.004 136.26L452.804 135.387V135.387L451.004 136.26ZM446.864 131.67L445.794 133.36L445.814 133.373L445.835 133.385L446.864 131.67ZM433.994 131.67L435.023 133.385L435.044 133.373L435.064 133.36L433.994 131.67ZM429.764 150.03L427.986 150.946V150.946L429.764 150.03ZM433.994 154.62L432.965 156.335L432.986 156.348L433.008 156.36L433.994 154.62ZM440.474 182.16V180.16C432.465 180.16 425.436 178.566 419.338 175.431L418.424 177.21L417.51 178.989C424.252 182.454 431.923 184.16 440.474 184.16V182.16ZM418.424 177.21L419.338 175.431C413.221 172.287 408.457 167.966 404.997 162.465L403.304 163.53L401.611 164.595C405.472 170.734 410.787 175.533 417.51 178.989L418.424 177.21ZM403.304 163.53L405.002 162.473C401.559 156.942 399.814 150.565 399.814 143.28H397.814H395.814C395.814 151.235 397.729 158.358 401.606 164.587L403.304 163.53ZM397.814 143.28H399.814C399.814 135.995 401.559 129.618 405.002 124.087L403.304 123.03L401.606 121.973C397.729 128.202 395.814 135.325 395.814 143.28H397.814ZM403.304 123.03L405.007 124.079C408.471 118.458 413.237 114.052 419.351 110.852L418.424 109.08L417.497 107.308C410.771 110.828 405.458 115.722 401.601 121.981L403.304 123.03ZM418.424 109.08L419.364 110.845C425.457 107.6 432.476 105.95 440.474 105.95V103.95V101.95C431.912 101.95 424.231 103.72 417.484 107.315L418.424 109.08ZM440.474 103.95V105.95C448.41 105.95 455.333 107.599 461.3 110.838L462.254 109.08L463.208 107.322C456.575 103.721 448.978 101.95 440.474 101.95V103.95ZM462.254 109.08L461.32 110.848C467.369 114.044 472.042 118.442 475.386 124.054L477.104 123.03L478.822 122.006C475.086 115.738 469.859 110.836 463.188 107.312L462.254 109.08ZM477.104 123.03L475.398 124.074C478.786 129.608 480.504 135.989 480.504 143.28H482.504H484.504C484.504 135.331 482.622 128.212 478.81 121.986L477.104 123.03ZM482.504 143.28H480.504C480.504 150.571 478.786 156.952 475.398 162.486L477.104 163.53L478.81 164.574C482.622 158.348 484.504 151.229 484.504 143.28H482.504ZM477.104 163.53L475.395 162.491C472.056 167.981 467.386 172.294 461.333 175.435L462.254 177.21L463.175 178.985C469.843 175.526 475.073 170.719 478.813 164.569L477.104 163.53ZM462.254 177.21L461.326 175.438C455.354 178.567 448.421 180.16 440.474 180.16V182.16V184.16C448.967 184.16 456.554 182.453 463.182 178.982L462.254 177.21ZM440.474 156.15V158.15C443.214 158.15 445.697 157.58 447.85 156.36L446.864 154.62L445.878 152.88C444.431 153.7 442.654 154.15 440.474 154.15V156.15ZM446.864 154.62L447.893 156.335C450.043 155.045 451.683 153.215 452.804 150.903L451.004 150.03L449.204 149.157C448.405 150.805 447.285 152.035 445.835 152.905L446.864 154.62ZM451.004 150.03L452.804 150.903C453.919 148.602 454.444 145.983 454.444 143.1H452.444H450.444C450.444 145.497 450.009 147.498 449.204 149.157L451.004 150.03ZM452.444 143.1H454.444C454.444 140.27 453.916 137.683 452.804 135.387L451.004 136.26L449.204 137.133C450.012 138.797 450.444 140.77 450.444 143.1H452.444ZM451.004 136.26L452.804 135.387C451.683 133.076 450.043 131.245 447.893 129.955L446.864 131.67L445.835 133.385C447.285 134.255 448.405 135.484 449.204 137.133L451.004 136.26ZM446.864 131.67L447.934 129.98C445.767 128.608 443.253 127.96 440.474 127.96V129.96V131.96C442.615 131.96 444.361 132.452 445.794 133.36L446.864 131.67ZM440.474 129.96V127.96C437.645 127.96 435.099 128.603 432.924 129.98L433.994 131.67L435.064 133.36C436.49 132.457 438.263 131.96 440.474 131.96V129.96ZM433.994 131.67L432.965 129.955C430.826 131.238 429.166 133.054 427.986 135.344L429.764 136.26L431.542 137.176C432.402 135.506 433.562 134.262 435.023 133.385L433.994 131.67ZM429.764 136.26L427.986 135.344C426.799 137.649 426.234 140.252 426.234 143.1H428.234H430.234C430.234 140.788 430.689 138.831 431.542 137.176L429.764 136.26ZM428.234 143.1H426.234C426.234 146 426.795 148.635 427.986 150.946L429.764 150.03L431.542 149.114C430.693 147.465 430.234 145.48 430.234 143.1H428.234ZM429.764 150.03L427.986 150.946C429.166 153.236 430.826 155.052 432.965 156.335L433.994 154.62L435.023 152.905C433.562 152.028 432.402 150.784 431.542 149.114L429.764 150.03ZM433.994 154.62L433.008 156.36C435.168 157.584 437.683 158.15 440.474 158.15V156.15V154.15C438.225 154.15 436.42 153.696 434.98 152.88L433.994 154.62ZM539.017 106.11V104.11H538.162L537.571 104.728L539.017 106.11ZM574.567 106.11L576.014 107.491L579.239 104.11H574.567V106.11ZM540.907 141.39L539.46 140.009L538.129 141.405L539.475 142.786L540.907 141.39ZM578.527 180V182H583.268L579.96 178.604L578.527 180ZM542.077 180L540.606 181.355L541.2 182H542.077V180ZM515.797 151.47L517.268 150.115L513.797 146.347V151.47H515.797ZM515.797 180V182H517.797V180H515.797ZM483.937 180H481.937V182H483.937V180ZM483.937 56.16V54.16H481.937V56.16H483.937ZM515.797 56.16H517.797V54.16H515.797V56.16ZM515.797 130.41H513.797V135.398L517.243 131.792L515.797 130.41ZM539.017 106.11V108.11H574.567V106.11V104.11H539.017V106.11ZM574.567 106.11L573.12 104.729L539.46 140.009L540.907 141.39L542.354 142.771L576.014 107.491L574.567 106.11ZM540.907 141.39L539.475 142.786L577.095 181.396L578.527 180L579.96 178.604L542.339 139.994L540.907 141.39ZM578.527 180V178H542.077V180V182H578.527V180ZM542.077 180L543.548 178.645L517.268 150.115L515.797 151.47L514.326 152.825L540.606 181.355L542.077 180ZM515.797 151.47H513.797V180H515.797H517.797V151.47H515.797ZM515.797 180V178H483.937V180V182H515.797V180ZM483.937 180H485.937V56.16H483.937H481.937V180H483.937ZM483.937 56.16V58.16H515.797V56.16V54.16H483.937V56.16ZM515.797 56.16H513.797V130.41H515.797H517.797V56.16H515.797ZM515.797 130.41L517.243 131.792L540.463 107.492L539.017 106.11L537.571 104.728L514.351 129.028L515.797 130.41ZM576.087 180H574.087V182H576.087V180ZM576.087 106.11V104.11H574.087V106.11H576.087ZM607.857 106.11H609.857V104.11H607.857V106.11ZM607.857 180V182H609.857V180H607.857ZM579.957 89.64L578.531 91.0416L578.537 91.048L578.543 91.0542L579.957 89.64ZM579.957 65.07L578.531 63.6681L578.525 63.6744L578.518 63.6808L579.957 65.07ZM601.107 62.28L600.061 63.9846L600.075 63.9934L600.09 64.0018L601.107 62.28ZM607.497 68.58L605.793 69.626V69.626L607.497 68.58ZM604.707 89.64L603.305 88.2135L603.299 88.2196L603.293 88.2258L604.707 89.64ZM576.087 180H578.087V106.11H576.087H574.087V180H576.087ZM576.087 106.11V108.11H607.857V106.11V104.11H576.087V106.11ZM607.857 106.11H605.857V180H607.857H609.857V106.11H607.857ZM607.857 180V178H576.087V180V182H607.857V180ZM592.377 94.77V92.77C588.045 92.77 584.414 91.2687 581.371 88.2258L579.957 89.64L578.543 91.0542C582.34 94.8513 586.99 96.77 592.377 96.77V94.77ZM579.957 89.64L581.384 88.2383C578.387 85.1875 576.917 81.609 576.917 77.4H574.917H572.917C572.917 82.671 574.808 87.2524 578.531 91.0416L579.957 89.64ZM574.917 77.4H576.917C576.917 73.19 578.388 69.5749 581.396 66.4592L579.957 65.07L578.518 63.6808C574.807 67.5251 572.917 72.13 572.917 77.4H574.917ZM579.957 65.07L581.384 66.4719C584.429 63.3728 588.056 61.85 592.377 61.85V59.85V57.85C586.978 57.85 582.325 59.8072 578.531 63.6681L579.957 65.07ZM592.377 59.85V61.85C595.198 61.85 597.745 62.5631 600.061 63.9846L601.107 62.28L602.153 60.5753C599.19 58.7569 595.916 57.85 592.377 57.85V59.85ZM601.107 62.28L600.09 64.0018C602.446 65.3942 604.341 67.261 605.793 69.626L607.497 68.58L609.202 67.534C607.413 64.619 605.048 62.2858 602.125 60.5581L601.107 62.28ZM607.497 68.58L605.793 69.626C607.21 71.9365 607.927 74.5115 607.927 77.4H609.927H611.927C611.927 73.8085 611.024 70.5035 609.202 67.534L607.497 68.58ZM609.927 77.4H607.927C607.927 81.5861 606.415 85.1572 603.305 88.2135L604.707 89.64L606.109 91.0665C609.959 87.2828 611.927 82.6939 611.927 77.4H609.927ZM604.707 89.64L603.293 88.2258C600.245 91.2739 596.642 92.77 592.377 92.77V94.77V96.77C597.712 96.77 602.33 94.8461 606.121 91.0542L604.707 89.64Z" fill="#28B67E" fill-opacity="0.8" mask="url(#path-8-outside-1_68_2)"/>
</svg>
